<?xml version="1.0" encoding="UTF-8"?><svg id="Layer_1" xmlns="http://www.w3.org/2000/svg" viewBox="0 0 286.77 284.14"><defs><style>.cls-1,.cls-2,.cls-3{stroke-miterlimit:10;}.cls-1,.cls-3{fill:none;stroke:#414042;stroke-linecap:round;stroke-width:17px;}.cls-4{fill:#3b3b3b;}.cls-5,.cls-2{fill:#7badf2;}.cls-2{stroke:#000;stroke-width:4px;}.cls-3{stroke-dasharray:0 0 0 0 1.03 29.85 0 0;}</style></defs><circle class="cls-2" cx="143.7" cy="144.81" r="108.32"/><path class="cls-4" d="M152.64,70.98c-22.42-1.02-47.71,7.37-52.31,30.77-2.66,13.53,4.72,30.69,15.67,34.72,8.56,3.15,12.88-4.07,26.59-2.15,14.38,2.02,39.38,13.25,42.7,10.31,3.22-2.85-20.64-14.08-17.08-17.66,4.45-4.49,13.06,1.5,14.1-.22,1.27-2.1-15.24-12.8-13.43-16.8,2.02-4.46,14.19-2.16,15.13-4.77,.97-2.68-12.9-5.89-11.48-15.33,.9-6.04,27.97,3.12,27.95-1.27-.02-4.18-34.59-16.99-47.84-17.59Z"/><ellipse class="cls-5" cx="126.05" cy="102.52" rx="13.84" ry="13.81"/><g><path class="cls-1" d="M80.87,123.29c-.12,.12-.24,.24-.35,.35"/><path class="cls-3" d="M66.34,149.17c-.59,5.95,.16,12.66,1.5,21.29,4.39,28.25,52.65,45.77,100.55,36.23,9.1-1.81,21.49-10.24,35.89-5.76,8.81,2.74,5.96-.83,9.19,3.3"/><path class="cls-1" d="M213.47,204.23c.1,.12,.2,.26,.31,.39"/></g></svg>