<?xml version="1.0" encoding="UTF-8"?><svg id="Layer_1" xmlns="http://www.w3.org/2000/svg" viewBox="0 0 286.77 284.14"><defs><style>.cls-1,.cls-2{fill:#3fdad5;}.cls-3{fill:#3b3b3b;}.cls-2{stroke:#000;stroke-miterlimit:10;stroke-width:4px;}</style></defs><circle class="cls-2" cx="143.76" cy="144.81" r="108.32"/><circle class="cls-3" cx="131.56" cy="122.8" r="60.51" transform="translate(-3.6 241.62) rotate(-84.35)"/><path class="cls-3" d="M79.69,211.83c4.4-13.84,133.15-13.64,137.67,.22,2.21,6.77-23.97,19.05-40.93,22.67-24.2,5.16-49.29,2.08-56.78,.51-17.59-3.69-42.12-16.61-39.96-23.39Z"/><g><path class="cls-3" d="M131.81,225.98c-1.27,0-3-.76-3.86-1.28-2.09-1.26-1.93-3.45-1.79-5.58,.1-1.46,.23-3.27-.18-5.43-.12-.64-.22-.96-.3-1.12-.16,.04-.42,.13-.84,.36-1.68,.91-3.44,1.98-5.15,3.02-5.1,3.09-10.36,6.29-15.03,6.39h-.16c-4.2,0-7.86-3.67-8.1-6.71-.2-2.58,2.02-4.04,4.82-5.88,2.37-1.55,5.31-3.49,8.1-6.68,4.23-4.84,6.56-9.86,7.35-15.78,.82-6.19,.35-11.39-.2-14.65-.92-5.55-2.43-8.77-4.18-12.49-1.71-3.66-3.66-7.81-5.11-14.69-1.32-6.24-2.81-13.31,1.14-16.38,.64-.5,1.44-.75,2.39-.75,4.44,0,13.38,6.41,15.04,13.23,1.19,4.88,1.52,8.55,1.78,11.5,.37,4.1,.58,5.83,2.17,7.3,.02,.01,1.84,1.66,3.87,1.66,.21,0,.42-.02,.62-.06,1.84-.34,3.28-2.27,5.12-4.96,2.69-3.94,9.51-8.95,13.34-8.95,1.21,0,1.98,.45,2.42,.82,1.53,1.3,2.64,4.07-.62,14.78-1.35,4.43-2.38,6.63-3.2,8.4-.66,1.42-1.18,2.54-1.75,4.46-1.71,5.79-3.39,18.41,2.44,24.7,.67,.72,1.29,1.21,2.02,1.77,1.24,.97,2.65,2.06,4.34,4.44,.27,.38,6.5,9.24,3.05,12.49-.41,.39-1.15,.86-2.31,.86h0c-.65,0-2.62-.01-7.62-3.46l-.18-.12-.15-.16c-1.09-1.17-2.03-2.41-2.86-3.51-1.88-2.49-3.11-4.01-4.56-4.01-2.09,0-3.83,1.65-4.16,1.98-1.34,1.36-1.8,3.53-2.28,5.82-.59,2.8-1.25,5.98-3.79,8.1-.43,.36-.98,.55-1.61,.55Z"/><path class="cls-1" d="M110.71,130.33c3.57,0,11.68,5.9,13.1,11.71,2.78,11.4,.73,16.28,4.54,19.8,.15,.14,2.44,2.19,5.22,2.19,.32,0,.65-.03,.98-.09,2.68-.49,4.45-2.93,6.41-5.8,2.49-3.65,8.72-8.08,11.69-8.08,.46,0,.85,.11,1.13,.35,.58,.5,1.92,2.33-1.24,12.67-2.36,7.74-3.59,8.23-4.96,12.88-2.08,7.07-3.36,19.88,2.89,26.63,2.02,2.18,3.73,2.54,6.2,6.01,2.47,3.47,4.66,8.6,3.31,9.88-.23,.22-.56,.31-.94,.31-1.75,0-4.81-1.94-6.5-3.1-3.42-3.66-5.29-8.16-8.89-8.16h0c-2.94,0-5.17,2.17-5.57,2.58-3.63,3.67-2.03,10.53-5.94,13.8-.07,.06-.18,.08-.33,.08-.66,0-1.99-.49-2.82-.99-1.9-1.14-.04-4.35-1.03-9.66-.2-1.06-.49-2.19-1.37-2.61-.24-.12-.5-.16-.76-.16-.76,0-1.53,.41-1.93,.62-6.57,3.58-13.67,9.04-19.27,9.16-.04,0-.08,0-.12,0-3.38,0-5.96-3.05-6.1-4.87-.22-2.8,6.49-4.28,12.43-11.08,4.7-5.39,7.02-10.8,7.82-16.83,.97-7.33,.14-13.14-.21-15.25-1.93-11.59-6.48-13.9-9.3-27.27-1.27-6-2.49-12.13,.41-14.39,.29-.22,.68-.33,1.16-.33m0-4h0c-1.74,0-2.93,.64-3.61,1.17-4.94,3.84-3.31,11.56-1.87,18.37,1.5,7.11,3.49,11.37,5.25,15.13,1.68,3.59,3.14,6.7,4.01,11.97,.52,3.13,.98,8.11,.19,14.06-.73,5.51-2.91,10.19-6.87,14.73-2.6,2.98-5.42,4.83-7.69,6.32-2.95,1.94-6.01,3.94-5.72,7.7,.15,1.99,1.29,4.09,3.13,5.76,1.98,1.8,4.45,2.8,6.96,2.8h.21c5.21-.11,10.71-3.45,16.03-6.68,1.2-.73,2.35-1.43,3.48-2.08,.1,1.26,.02,2.38-.05,3.41-.15,2.21-.38,5.54,2.75,7.43,.97,.58,3.08,1.57,4.89,1.57,1.39,0,2.35-.55,2.9-1.01,3.07-2.57,3.85-6.26,4.47-9.23,.42-2,.81-3.88,1.74-4.82,.51-.52,1.66-1.39,2.73-1.39,.54,0,2.18,2.17,2.97,3.22,.86,1.14,1.84,2.43,3,3.67l.3,.32,.36,.25c4.96,3.41,7.38,3.81,8.77,3.81,1.82,0,3.01-.76,3.69-1.4,1.91-1.8,2.18-4.63,.79-8.4-.8-2.18-2.11-4.62-3.58-6.7-1.86-2.62-3.46-3.86-4.75-4.86-.68-.53-1.22-.95-1.78-1.55-2.65-2.86-5.37-11.29-1.99-22.78,.52-1.78,1.02-2.84,1.64-4.18,.85-1.82,1.91-4.09,3.3-8.66,2.94-9.64,2.95-14.37,.01-16.88-.7-.59-1.91-1.3-3.72-1.3-4.99,0-12.33,5.91-14.99,9.82-1.12,1.65-2.66,3.9-3.83,4.12-.08,.02-.17,.02-.26,.02-.93,0-2.11-.77-2.53-1.15-.97-.89-1.17-2-1.52-5.99-.25-2.86-.6-6.77-1.83-11.8-1.14-4.68-4.92-8.37-7.07-10.16-1.67-1.38-5.97-4.6-9.91-4.6h0Z"/></g><circle class="cls-3" cx="181.94" cy="188.15" r="10.21" transform="translate(-23.23 350.66) rotate(-84.35)"/><circle class="cls-3" cx="205.73" cy="191.37" r="10.21" transform="translate(-4.98 377.24) rotate(-84.35)"/></svg>