<?xml version="1.0" encoding="UTF-8"?><svg id="Layer_1" xmlns="http://www.w3.org/2000/svg" viewBox="0 0 286.77 284.14"><defs><style>.cls-1{fill:#3b3b3b;}.cls-2{fill:#64c0e4;stroke:#000;stroke-miterlimit:10;stroke-width:4px;}</style></defs><circle class="cls-2" cx="143.64" cy="144.81" r="108.32"/><g><path class="cls-1" d="M56.11,144.68c.12-.27,.27-.53,.37-.81,.91-2.45,3.3-3.84,5.84-3.4,2.56,.45,4.33,2.53,4.37,5.15,.04,2.76-1.73,4.89-4.5,5.39-2.31,.43-4.76-1.02-5.67-3.35-.12-.31-.27-.61-.41-.92,0-.69,0-1.38,0-2.07Z"/><path class="cls-1" d="M144.08,58.55c.47,.15,.94,.28,1.4,.44,2.44,.86,3.84,3.33,3.38,5.95-.44,2.5-2.72,4.29-5.38,4.22-2.7-.07-4.8-2.06-5.1-4.82-.26-2.38,1.45-4.82,3.82-5.48,.32-.09,.63-.2,.95-.31,.31,0,.61,0,.92,0Z"/><path class="cls-1" d="M151.53,181.56c-2.27,2.67-5.19,3.54-8.56,2.65-1.1-.29-2.06-1.11-3.11-1.65-.29-.15-.72-.33-.97-.22-5.13,2.06-8.27,1.12-11.44-3.47-1.39,0-2.85,.27-4.18-.05-3.1-.76-5.15-2.79-5.87-5.97-.15-.66-.46-.85-1.06-.95-4.6-.8-7.19-4.18-6.91-8.92,.02-.3-.27-.76-.55-.91-4.25-2.32-5.67-6.28-3.9-10.81,.11-.28,0-.82-.21-1.04-3.28-3.52-3.38-7.84-.25-11.49,.2-.23,.3-.8,.15-1.05-2-3.36-.85-8.89,3.39-10.99,.28-.14,.54-.72,.5-1.06-.49-4.65,2.03-8.22,6.6-9.16,.61-.13,.77-.35,.88-.93,.8-4.29,4.56-7.04,8.86-6.59,.4,.04,1.04-.12,1.22-.41,2.82-4.35,6.57-5.46,11.26-3.35,1.11-.71,2.1-1.54,3.23-2.03,2.22-.96,4.48-.81,6.68,.26,.36,.17,.82,.38,1.16,.29,4.17-1.06,7.37,.26,9.75,3.9,2.36-.72,4.66-.52,6.81,.81,1.74,1.07,2.95,2.56,3.46,4.55,.18,.69,.47,.93,1.22,1.02,4.44,.53,7.33,3.96,7.26,8.45,0,.33,.22,.82,.48,.97,4.7,2.53,6.1,6.04,4.34,10.99-.03,.07-.02,.15-.03,.23,4.1,4.44,4.35,7.89,.86,12.47,1.32,2.06,1.8,4.3,1.16,6.75-.56,2.11-1.76,3.73-3.63,4.83-.52,.31-.66,.59-.54,1.18,.84,4.39-1.71,8.4-6.03,9.42-.72,.17-.89,.48-.97,1.14-.54,4.2-4.44,7.26-8.64,6.87-.35-.03-.95,.2-1.06,.46-1.57,3.89-6.82,6.08-11.09,3.87-.06-.03-.15-.01-.28-.02Zm-27.28-56.89c-.32,2.5-1.3,4.64-3.4,5.95-1.22,.76-1.61,1.47-1.48,2.92,.22,2.5-.93,4.6-2.71,6.33,1.64,2.87,1.62,5.74,.21,8.65,2.33,1.99,3.26,4.5,3.03,7.5-.02,.29,.4,.75,.73,.92,2.26,1.21,3.77,3,4.31,5.52,.15,.67,.42,.89,1.11,.99,2.27,.31,4.17,1.37,5.45,3.28,.62,.93,1.12,1.46,2.34,1.1,.69-.21,1.57-.14,2.26,.11,1.62,.58,3.17,1.35,4.94,2.13,2.25-1.34,4.88-1.58,7.63-.42,.25,.11,.76,0,.95-.19,1.91-1.99,4.23-2.8,6.96-2.65,.33,.02,.83-.31,.99-.62,1.23-2.35,3.06-3.91,5.67-4.46,.67-.14,.83-.48,.9-1.09,.29-2.42,1.52-4.3,3.51-5.68,.34-.24,.7-.44,1.06-.67-.83-3.2-.06-5.96,2.14-8.32-1.81-2.78-1.92-5.64-.63-8.6-2.39-1.91-3.52-4.33-3.37-7.36,.01-.29-.44-.74-.78-.89-2.3-1.05-3.87-2.75-4.56-5.17-.22-.77-.59-1.02-1.32-1.09-2.57-.25-4.52-1.53-6-3.62-.19-.27-.74-.51-1.07-.44-2.11,.43-4.1,.17-6.02-.81-.33-.17-.81-.2-1.17-.11-2.05,.53-4.01,.38-5.94-.55-.28-.13-.84-.07-1.05,.13-2.04,1.94-4.44,2.62-7.19,2.28-.25-.03-.68,.16-.79,.38-1.39,2.72-3.67,4.13-6.73,4.58Z"/><path class="cls-1" d="M181.8,96.39c-.05,3.56-3.02,6.5-6.57,6.51-3.66,0-6.78-3.15-6.7-6.77,.07-3.57,3.07-6.49,6.61-6.45,3.61,.04,6.7,3.16,6.66,6.71Z"/><path class="cls-1" d="M119.22,89.94c0-3.72,2.89-6.54,6.68-6.55,3.64,0,6.5,2.8,6.56,6.43,.06,3.66-3.01,6.66-6.78,6.64-3.61-.02-6.47-2.9-6.46-6.52Z"/><path class="cls-1" d="M178.93,196.02c-3.62-.01-6.48-2.87-6.49-6.5,0-3.67,2.95-6.63,6.65-6.64,3.65-.01,6.6,2.93,6.58,6.56-.02,3.62-3.06,6.59-6.74,6.58Z"/><path class="cls-1" d="M90.16,110.91c-.02-3.68,2.93-6.7,6.58-6.72,3.59-.02,6.53,2.87,6.56,6.45,.04,3.72-2.96,6.77-6.66,6.77-3.6,0-6.47-2.87-6.49-6.51Z"/><path class="cls-1" d="M95.48,162.96c0,3.69-2.87,6.59-6.53,6.57-3.66-.01-6.57-2.99-6.57-6.72,0-3.59,2.91-6.51,6.49-6.53,3.67-.02,6.6,2.95,6.6,6.67Z"/><path class="cls-1" d="M188.81,114.93c-3.62,0-6.68-3.04-6.69-6.65-.01-3.62,2.98-6.6,6.59-6.57,3.61,.02,6.67,3.12,6.63,6.71-.03,3.58-2.96,6.51-6.53,6.51Z"/><path class="cls-1" d="M158.63,95.59c-3.74,0-6.7-2.9-6.71-6.57,0-3.63,2.84-6.49,6.47-6.5,3.8-.01,6.75,2.81,6.78,6.48,.03,3.63-2.91,6.59-6.54,6.6Z"/><path class="cls-1" d="M81.92,127.05c.01-3.74,2.92-6.7,6.59-6.69,3.57,.01,6.5,2.95,6.5,6.53,0,3.79-2.94,6.75-6.68,6.72-3.62-.03-6.42-2.9-6.41-6.56Z"/><path class="cls-1" d="M163.01,204.59c-3.63,.02-6.49-2.8-6.52-6.44-.03-3.71,2.87-6.64,6.59-6.67,3.66-.03,6.58,2.86,6.6,6.52,.01,3.68-2.91,6.57-6.67,6.59Z"/><path class="cls-1" d="M201.59,135.25c3.73,0,6.51,2.88,6.5,6.71-.01,3.62-2.86,6.5-6.48,6.54-3.61,.04-6.6-2.99-6.6-6.7,0-3.67,2.9-6.55,6.57-6.55Z"/><path class="cls-1" d="M97.56,185.46c-3.68-.08-6.55-3.09-6.48-6.8,.07-3.67,3.03-6.47,6.72-6.36,3.67,.11,6.5,3.12,6.43,6.85-.07,3.58-3.05,6.4-6.67,6.32Z"/><path class="cls-1" d="M127.36,205.51c-3.8-.02-6.68-2.85-6.68-6.56,0-3.65,2.95-6.55,6.61-6.51,3.74,.04,6.64,2.96,6.62,6.65-.02,3.6-2.92,6.44-6.55,6.42Z"/><path class="cls-1" d="M192.87,160.02c-.01-3.76,2.85-6.71,6.54-6.73,3.62-.02,6.62,2.97,6.58,6.58-.03,3.72-2.99,6.68-6.64,6.67-3.61-.01-6.46-2.88-6.48-6.52Z"/><path class="cls-1" d="M197.83,130.62c-3.67-.02-6.53-3-6.5-6.76,.02-3.57,3.01-6.52,6.55-6.48,3.65,.04,6.57,3.04,6.55,6.75-.02,3.69-2.89,6.51-6.6,6.48Z"/><path class="cls-1" d="M145.21,207.81c-3.67,0-6.63-2.92-6.61-6.53,.02-3.61,2.98-6.52,6.64-6.54,3.72-.01,6.65,2.91,6.63,6.62-.02,3.65-2.92,6.45-6.66,6.45Z"/><path class="cls-1" d="M92.28,145c.04,3.6-2.75,6.53-6.26,6.57-3.87,.05-6.77-2.74-6.79-6.52-.02-3.69,2.74-6.58,6.34-6.62,3.88-.05,6.67,2.68,6.71,6.58Z"/><path class="cls-1" d="M110.81,184.72c3.67-.02,6.69,2.97,6.7,6.61,0,3.58-2.9,6.5-6.49,6.53-3.68,.03-6.72-2.93-6.74-6.57-.02-3.68,2.84-6.56,6.53-6.58Z"/><path class="cls-1" d="M109.72,91.5c3.64,0,6.47,2.83,6.48,6.47,0,3.75-2.93,6.64-6.73,6.63-3.63-.01-6.43-2.86-6.42-6.52,.02-3.71,2.92-6.58,6.67-6.57Z"/><path class="cls-1" d="M191.68,169.75c3.68,.03,6.5,2.91,6.48,6.62-.02,3.65-3.05,6.61-6.72,6.56-3.63-.05-6.42-2.91-6.4-6.56,.02-3.72,2.97-6.65,6.64-6.62Z"/><path class="cls-1" d="M137.14,87.17c-.01-3.72,2.8-6.55,6.52-6.54,3.67,0,6.62,2.92,6.6,6.53-.02,3.6-3.05,6.57-6.64,6.53-3.63-.04-6.46-2.89-6.47-6.52Z"/><path class="cls-1" d="M95.33,84.61c-2.96,0-5.26-2.26-5.28-5.19-.02-2.92,2.51-5.42,5.44-5.39,2.83,.02,5.19,2.37,5.23,5.2,.04,2.97-2.37,5.38-5.39,5.39Z"/><path class="cls-1" d="M82.35,97.37c-.01,2.93-2.42,5.35-5.32,5.36-2.91,0-5.25-2.34-5.25-5.26,0-2.98,2.48-5.48,5.39-5.43,2.93,.05,5.19,2.37,5.18,5.33Z"/><path class="cls-1" d="M71.09,171.13c.01,2.96-2.26,5.28-5.19,5.29-2.98,.01-5.37-2.4-5.37-5.42,0-2.85,2.44-5.28,5.29-5.26,2.93,.02,5.26,2.4,5.27,5.4Z"/><path class="cls-1" d="M170.56,226.65c-2.94,0-5.28-2.35-5.25-5.26,.03-2.9,2.46-5.27,5.42-5.28,2.88-.01,5.28,2.36,5.3,5.24,.02,2.96-2.4,5.3-5.48,5.3Z"/><path class="cls-1" d="M217.33,167.99c-.02-3.02,2.38-5.5,5.31-5.49,2.85,0,5.2,2.33,5.24,5.17,.05,3.05-2.28,5.5-5.26,5.52-2.92,.02-5.28-2.29-5.3-5.2Z"/><path class="cls-1" d="M203,94.58c.02-3.03,2.28-5.19,5.38-5.16,2.83,.03,5.2,2.47,5.2,5.35,0,2.95-2.36,5.24-5.39,5.22-2.94-.02-5.22-2.4-5.2-5.41Z"/><path class="cls-1" d="M78.05,188.45c2.93,0,5.32,2.38,5.33,5.32,.01,2.93-2.3,5.24-5.24,5.24-2.98,0-5.44-2.44-5.41-5.39,.03-2.92,2.36-5.18,5.32-5.17Z"/><path class="cls-1" d="M165.88,72.13c-3.05,0-5.38-2.26-5.4-5.22-.02-2.92,2.3-5.29,5.2-5.32,3-.03,5.49,2.38,5.49,5.33,0,2.91-2.33,5.21-5.28,5.21Z"/><path class="cls-1" d="M226,137.05c3,.02,5.2,2.32,5.16,5.4-.04,2.99-2.29,5.21-5.26,5.21-2.99,0-5.33-2.44-5.25-5.49,.07-2.94,2.37-5.14,5.35-5.13Z"/><path class="cls-1" d="M216.61,190.89c0,3.05-2.34,5.42-5.35,5.4-2.97-.02-5.22-2.29-5.22-5.25,0-2.95,2.37-5.34,5.3-5.36,2.95-.01,5.25,2.26,5.26,5.21Z"/><path class="cls-1" d="M65.39,114.98c2.93,.01,5.22,2.33,5.19,5.27-.03,3-2.34,5.33-5.3,5.34-2.93,0-5.24-2.3-5.24-5.24,0-3.07,2.31-5.39,5.35-5.38Z"/><path class="cls-1" d="M125.23,222.47c0,2.93-2.33,5.27-5.23,5.25-3-.02-5.37-2.34-5.38-5.28-.02-2.96,2.24-5.24,5.2-5.26,3.13-.02,5.42,2.21,5.41,5.29Z"/><path class="cls-1" d="M221.02,122.38c-2.98,.01-5.29-2.3-5.31-5.32-.02-2.97,2.23-5.28,5.17-5.29,3.02-.02,5.37,2.34,5.37,5.38,0,2.95-2.27,5.22-5.23,5.24Z"/><path class="cls-1" d="M194.5,77.5c0,2.98-2.24,5.22-5.21,5.22-3.04,0-5.36-2.34-5.35-5.39,.01-2.9,2.27-5.16,5.16-5.18,3.02-.02,5.4,2.34,5.4,5.34Z"/><path class="cls-1" d="M96.77,206.13c2.96,.03,5.33,2.42,5.3,5.34-.03,2.89-2.43,5.26-5.3,5.24-2.92-.03-5.45-2.61-5.38-5.48,.07-2.94,2.39-5.13,5.38-5.11Z"/><path class="cls-1" d="M193.3,214.67c-2.96,0-5.23-2.28-5.22-5.23,0-2.9,2.43-5.31,5.35-5.33,2.93-.01,5.25,2.28,5.26,5.22,.01,3.04-2.32,5.35-5.39,5.34Z"/><path class="cls-1" d="M118.23,73.09c-2.94-.01-5.21-2.31-5.2-5.27,.01-2.93,2.4-5.26,5.39-5.27,2.89,0,5.27,2.35,5.3,5.24,.03,2.95-2.41,5.3-5.49,5.29Z"/><path class="cls-1" d="M145.44,220.61c3.02,0,5.31,2.3,5.28,5.31-.02,2.91-2.32,5.14-5.32,5.16-3.01,.02-5.37-2.29-5.37-5.25,0-2.93,2.38-5.22,5.41-5.21Z"/><path class="cls-1" d="M125.36,142.8c.14-10.48,8.34-18.47,18.83-18.35,10,.12,17.98,8.7,17.81,19.16-.15,9.79-8.64,17.83-18.68,17.69-10.01-.14-18.1-8.47-17.97-18.5Z"/></g></svg>