<?xml version="1.0" encoding="UTF-8"?><svg id="Layer_1" xmlns="http://www.w3.org/2000/svg" viewBox="0 0 286.77 284.14"><defs><style>.cls-1{fill:#3b3b3b;}.cls-2,.cls-3{fill:#37da87;}.cls-3{stroke:#000;stroke-miterlimit:10;stroke-width:4px;}</style></defs><circle class="cls-3" cx="143.73" cy="144.81" r="108.32"/><path class="cls-1" d="M110.95,61.7c-7.97,12.01,6.3,24.57-2.04,42.29-7.59,16.14-26.34,20.43-24.79,24.79,1.5,4.24,17.83-3.63,35.29,3.5,17.6,7.19,20.07,22.99,29.17,21.87,11.19-1.37,8.54-25.45,25.08-35,18.56-10.72,41.46,8.31,48.41-.29,6.2-7.66-7.04-28.87-16.92-39.96-14.15-15.88-30.86-21.58-36.75-23.33-16.08-4.78-47.66-8.64-57.46,6.12Z"/><ellipse class="cls-2" cx="138.95" cy="81.18" rx="19.7" ry="19.67"/><path class="cls-1" d="M66.32,160.57c.42-1.58,3.97-14.1,15.46-20.42,17.55-9.65,44.35,.31,55.12,18.67,8.85,15.09,4.41,31.63,2.33,39.37-1.86,6.92-7.66,28.54-21,31.79-21.48,5.23-60.39-37.74-51.91-69.41Z"/><path class="cls-1" d="M224.4,134.03c-10.96-10.15-30.16-11.53-40.83-4.08-5.36,3.74-5.18,7.35-17.21,26.54-6.89,11-8.09,11.62-11.67,17.5-7.29,11.98-23.17,43.61-12.83,55.12,7.91,8.82,28.12,2.43,36.75-.29,6.31-1.99,37.36-11.8,49.29-42.58,2.09-5.39,13.97-36.03-3.5-52.21Z"/><ellipse class="cls-2" cx="181.84" cy="197.3" rx="18.5" ry="18.47"/><ellipse class="cls-2" cx="105.06" cy="193.13" rx="17.36" ry="17.33"/></svg>