<?xml version="1.0" encoding="UTF-8"?><svg id="Layer_1" xmlns="http://www.w3.org/2000/svg" viewBox="0 0 286.77 284.14"><defs><style>.cls-1{fill:#7bacf1;}</style></defs><path class="cls-1" d="M157.86,66.55c-48.97-2.24-104.2,16.09-114.24,67.18-5.81,29.55,10.31,67.02,34.23,75.82,18.68,6.88,28.13-8.89,58.07-4.69,31.4,4.4,85.99,28.93,93.25,22.52,7.04-6.22-45.06-30.74-37.3-38.57,9.71-9.8,28.53,3.28,30.79-.48,2.77-4.58-33.28-27.95-29.32-36.7,4.4-9.74,30.99-4.72,33.04-10.41,2.11-5.84-28.16-12.86-25.08-33.48,1.97-13.19,61.08,6.81,61.03-2.78-.04-9.13-75.55-37.1-104.46-38.42Zm-58.08,99.03c-16.69,0-30.21-13.5-30.21-30.15s13.53-30.15,30.21-30.15,30.21,13.5,30.21,30.15-13.53,30.15-30.21,30.15Z"/></svg>