<?xml version="1.0" encoding="UTF-8" standalone="no"?>
<svg
   id="Layer_1"
   viewBox="0 0 286.77 284.14"
   version="1.1"
   sodipodi:docname="behaviour.svg"
   inkscape:version="1.2.2 (b0a84865, 2022-12-01)"
   xmlns:inkscape="http://www.inkscape.org/namespaces/inkscape"
   xmlns:sodipodi="http://sodipodi.sourceforge.net/DTD/sodipodi-0.dtd"
   xmlns="http://www.w3.org/2000/svg"
   xmlns:svg="http://www.w3.org/2000/svg">
  <sodipodi:namedview
     id="namedview9"
     pagecolor="#ffffff"
     bordercolor="#000000"
     borderopacity="0.25"
     inkscape:showpageshadow="2"
     inkscape:pageopacity="0.0"
     inkscape:pagecheckerboard="0"
     inkscape:deskcolor="#d1d1d1"
     showgrid="false"
     inkscape:zoom="0.83057643"
     inkscape:cx="136.65208"
     inkscape:cy="117.99035"
     inkscape:window-width="722"
     inkscape:window-height="456"
     inkscape:window-x="720"
     inkscape:window-y="338"
     inkscape:window-maximized="0"
     inkscape:current-layer="Layer_1" />
  <defs
     id="defs4">
    <style
       id="style2">.cls-1{fill:#7bacf1;}</style>
  </defs>
  <path
     class="cls-1"
     d="M 149.966,37.710433 C 85.839554,34.777143 13.515612,58.780363 0.36818552,125.68296 -7.2400365,164.37882 13.869178,213.44596 45.19253,224.9696 c 24.461547,9.0094 36.836365,-11.64149 76.04293,-6.14157 41.11845,5.76182 112.60431,37.88397 122.11131,29.49004 9.21892,-8.14512 -59.00628,-40.25417 -48.84452,-50.50759 12.71529,-12.83315 37.36017,4.29517 40.31965,-0.62856 3.62733,-5.99754 -43.58032,-36.60066 -38.39468,-48.05882 5.76182,-12.75458 40.58155,-6.18087 43.26604,-13.63195 2.76305,-7.64751 -36.87566,-16.84023 -32.84238,-43.842221 2.57972,-17.272366 79.98454,8.917731 79.91907,-3.640422 C 286.71757,76.052729 187.83687,39.425884 149.97909,37.697338 Z M 73.909967,167.39068 c -21.855633,0 -39.560136,-17.67831 -39.560136,-39.48156 0,-21.80326 17.717598,-39.481572 39.560136,-39.481572 21.842537,0 39.560133,17.678312 39.560133,39.481572 0,21.80325 -17.717596,39.48156 -39.560133,39.48156 z"
     id="path6"
     style="stroke-width:1.3095" />
</svg>
