<?xml version="1.0" encoding="UTF-8" standalone="no"?>
<svg
   id="Layer_1"
   viewBox="0 0 286.77 284.14"
   version="1.1"
   sodipodi:docname="eco_evo.svg"
   inkscape:version="1.2.2 (b0a84865, 2022-12-01)"
   xmlns:inkscape="http://www.inkscape.org/namespaces/inkscape"
   xmlns:sodipodi="http://sodipodi.sourceforge.net/DTD/sodipodi-0.dtd"
   xmlns="http://www.w3.org/2000/svg"
   xmlns:svg="http://www.w3.org/2000/svg">
  <sodipodi:namedview
     id="namedview15"
     pagecolor="#ffffff"
     bordercolor="#000000"
     borderopacity="0.25"
     inkscape:showpageshadow="2"
     inkscape:pageopacity="0.0"
     inkscape:pagecheckerboard="0"
     inkscape:deskcolor="#d1d1d1"
     showgrid="false"
     inkscape:zoom="0.83057643"
     inkscape:cx="143.87598"
     inkscape:cy="142.07001"
     inkscape:window-width="722"
     inkscape:window-height="456"
     inkscape:window-x="720"
     inkscape:window-y="338"
     inkscape:window-maximized="0"
     inkscape:current-layer="Layer_1" />
  <defs
     id="defs4">
    <style
       id="style2">.cls-1{fill:#3fdad5;}</style>
  </defs>
  <path
     class="cls-1"
     d="m 200.09673,274.47273 c 2.38649,-2.23817 -1.46964,-11.25828 -5.81116,-17.35258 -4.34151,-6.10778 -7.33473,-6.728 -10.89423,-10.57064 -10.98862,-11.85153 -8.73696,-34.3546 -5.08308,-46.78589 2.41345,-8.18416 4.55724,-9.03359 8.71,-22.6379 5.55498,-18.17504 3.19546,-21.38399 2.18424,-22.26038 -0.48539,-0.41797 -1.15954,-0.60673 -1.982,-0.60673 -5.21791,0 -16.16608,7.77967 -20.53456,14.18408 -3.43815,5.04263 -6.53923,9.31673 -11.25827,10.19312 -0.57977,0.10786 -1.15954,0.1618 -1.72582,0.1618 -4.89432,0 -8.92573,-3.61344 -9.1819,-3.85613 -6.70103,-6.1752 -3.0876,-14.75037 -7.98192,-34.78605 -2.49435,-10.20661 -16.74584,-20.57501 -23.01542,-20.57501 -0.83594,0 -1.52357,0.18876 -2.03593,0.57977 -5.09656,3.96399 -2.95277,14.73688 -0.72808,25.28056 4.96173,23.48732 12.95713,27.55918 16.34136,47.91846 0.62021,3.69433 2.07637,13.90094 0.36404,26.79065 -1.40223,10.59761 -5.48757,20.1031 -13.73915,29.56814 -10.43581,11.97288 -22.219922,14.56161 -21.842399,19.48289 0.242694,3.18198 4.77297,8.5482 10.718959,8.5482 0.0674,0 0.14831,0 0.21573,0 9.84256,-0.21573 22.3143,-9.8156 33.85572,-16.09866 0.70112,-0.37752 2.04941,-1.09212 3.38423,-1.09212 0.45842,0 0.90336,0.0809 1.33481,0.28314 1.53706,0.74156 2.04941,2.72356 2.39997,4.58421 1.75278,9.34369 -1.52358,14.96609 1.8202,16.97505 1.46964,0.88988 3.80219,1.7393 4.96173,1.7393 0.25618,0 0.4719,-0.0404 0.57977,-0.14831 6.86283,-5.74374 4.05837,-17.79751 10.43581,-24.24237 0.7146,-0.7146 4.61118,-4.53028 9.78864,-4.53028 v 0 c 6.31002,0 9.61335,7.90102 15.61327,14.3324 2.96625,2.03592 8.33247,5.4606 11.42007,5.4606 0.67415,0 1.25392,-0.1618 1.65841,-0.5528 z"
     id="path6"
     style="stroke-width:1.3483" />
  <g
     id="g12"
     transform="matrix(1.3482965,0,0,1.3482965,-58.70879,-48.484744)">
    <path
       class="cls-1"
       d="m 152.07,193.69 c 7.76,0 15.25,-1.14 22.34,-3.23 0.39,-2.38 0.9,-4.59 1.46,-6.47 1.79,-6.07 3.38,-6.7 6.46,-16.79 4.12,-13.48 2.37,-15.86 1.62,-16.51 -0.36,-0.31 -0.86,-0.45 -1.47,-0.45 -3.87,0 -11.99,5.77 -15.23,10.52 -2.55,3.74 -4.85,6.91 -8.35,7.56 -0.43,0.08 -0.86,0.12 -1.28,0.12 -3.63,0 -6.62,-2.68 -6.81,-2.86 -4.97,-4.58 -2.29,-10.94 -5.92,-25.8 -1.85,-7.57 -12.42,-15.26 -17.07,-15.26 -0.62,0 -1.13,0.14 -1.51,0.43 -3.78,2.94 -2.19,10.93 -0.54,18.75 3.68,17.42 9.61,20.44 12.12,35.54 0.35,2.08 1.05,6.93 0.82,13.31 4.35,0.74 8.81,1.15 13.36,1.15 z"
       id="path8" />
    <path
       class="cls-1"
       d="m 152.07,35.96 c -43.55,0 -78.86,35.31 -78.86,78.86 0,37.03 25.54,68.09 59.96,76.56 0.08,-3.85 -0.18,-7.69 -0.77,-11.25 -1.14,-6.83 -3.02,-10.85 -5.2,-15.51 -2.3,-4.91 -4.91,-10.49 -6.87,-19.79 -1.89,-8.98 -4.04,-19.15 2.57,-24.29 0.94,-0.73 2.56,-1.6 4.93,-1.6 v 0 c 7.57,0 20.08,9.64 22.48,19.51 1.61,6.58 2.06,11.7 2.4,15.43 0.45,5.09 0.7,6.5 1.87,7.58 0.5,0.44 1.95,1.4 3.05,1.4 0.1,0 0.18,0 0.27,-0.02 1.37,-0.25 3.41,-3.24 4.76,-5.22 3.6,-5.28 13.12,-12.96 19.83,-12.96 2.47,0 4.13,0.97 5.09,1.79 3.95,3.38 3.98,9.65 0.09,22.37 -1.82,5.98 -3.21,8.95 -4.32,11.34 -0.84,1.8 -1.45,3.1 -2.12,5.4 -0.26,0.87 -0.5,1.83 -0.72,2.83 29.51,-11.41 50.44,-40.03 50.44,-73.56 0,-43.55 -35.31,-78.86 -78.86,-78.86 z"
       id="path10" />
  </g>
</svg>
