<?xml version="1.0" encoding="UTF-8"?><svg id="Layer_1" xmlns="http://www.w3.org/2000/svg" viewBox="0 0 286.77 284.14"><defs><style>.cls-1{fill:#3fdad5;}</style></defs><path class="cls-1" d="M191.95,239.53c1.77-1.66-1.09-8.35-4.31-12.87-3.22-4.53-5.44-4.99-8.08-7.84-8.15-8.79-6.48-25.48-3.77-34.7,1.79-6.07,3.38-6.7,6.46-16.79,4.12-13.48,2.37-15.86,1.62-16.51-.36-.31-.86-.45-1.47-.45-3.87,0-11.99,5.77-15.23,10.52-2.55,3.74-4.85,6.91-8.35,7.56-.43,.08-.86,.12-1.28,.12-3.63,0-6.62-2.68-6.81-2.86-4.97-4.58-2.29-10.94-5.92-25.8-1.85-7.57-12.42-15.26-17.07-15.26-.62,0-1.13,.14-1.51,.43-3.78,2.94-2.19,10.93-.54,18.75,3.68,17.42,9.61,20.44,12.12,35.54,.46,2.74,1.54,10.31,.27,19.87-1.04,7.86-4.07,14.91-10.19,21.93-7.74,8.88-16.48,10.8-16.2,14.45,.18,2.36,3.54,6.34,7.95,6.34,.05,0,.11,0,.16,0,7.3-.16,16.55-7.28,25.11-11.94,.52-.28,1.52-.81,2.51-.81,.34,0,.67,.06,.99,.21,1.14,.55,1.52,2.02,1.78,3.4,1.3,6.93-1.13,11.1,1.35,12.59,1.09,.66,2.82,1.29,3.68,1.29,.19,0,.35-.03,.43-.11,5.09-4.26,3.01-13.2,7.74-17.98,.53-.53,3.42-3.36,7.26-3.36h0c4.68,0,7.13,5.86,11.58,10.63,2.2,1.51,6.18,4.05,8.47,4.05,.5,0,.93-.12,1.23-.41Z"/><g><path class="cls-1" d="M152.07,193.69c7.76,0,15.25-1.14,22.34-3.23,.39-2.38,.9-4.59,1.46-6.47,1.79-6.07,3.38-6.7,6.46-16.79,4.12-13.48,2.37-15.86,1.62-16.51-.36-.31-.86-.45-1.47-.45-3.87,0-11.99,5.77-15.23,10.52-2.55,3.74-4.85,6.91-8.35,7.56-.43,.08-.86,.12-1.28,.12-3.63,0-6.62-2.68-6.81-2.86-4.97-4.58-2.29-10.94-5.92-25.8-1.85-7.57-12.42-15.26-17.07-15.26-.62,0-1.13,.14-1.51,.43-3.78,2.94-2.19,10.93-.54,18.75,3.68,17.42,9.61,20.44,12.12,35.54,.35,2.08,1.05,6.93,.82,13.31,4.35,.74,8.81,1.15,13.36,1.15Z"/><path class="cls-1" d="M152.07,35.96c-43.55,0-78.86,35.31-78.86,78.86,0,37.03,25.54,68.09,59.96,76.56,.08-3.85-.18-7.69-.77-11.25-1.14-6.83-3.02-10.85-5.2-15.51-2.3-4.91-4.91-10.49-6.87-19.79-1.89-8.98-4.04-19.15,2.57-24.29,.94-.73,2.56-1.6,4.93-1.6h0c7.57,0,20.08,9.64,22.48,19.51,1.61,6.58,2.06,11.7,2.4,15.43,.45,5.09,.7,6.5,1.87,7.58,.5,.44,1.95,1.4,3.05,1.4,.1,0,.18,0,.27-.02,1.37-.25,3.41-3.24,4.76-5.22,3.6-5.28,13.12-12.96,19.83-12.96,2.47,0,4.13,.97,5.09,1.79,3.95,3.38,3.98,9.65,.09,22.37-1.82,5.98-3.21,8.95-4.32,11.34-.84,1.8-1.45,3.1-2.12,5.4-.26,.87-.5,1.83-.72,2.83,29.51-11.41,50.44-40.03,50.44-73.56,0-43.55-35.31-78.86-78.86-78.86Z"/></g></svg>