<?xml version="1.0" encoding="UTF-8" standalone="no"?>
<svg
   id="Layer_1"
   viewBox="0 0 286.77 284.14"
   version="1.1"
   sodipodi:docname="integration.svg"
   inkscape:version="1.2.2 (b0a84865, 2022-12-01)"
   xmlns:inkscape="http://www.inkscape.org/namespaces/inkscape"
   xmlns:sodipodi="http://sodipodi.sourceforge.net/DTD/sodipodi-0.dtd"
   xmlns="http://www.w3.org/2000/svg"
   xmlns:svg="http://www.w3.org/2000/svg">
  <sodipodi:namedview
     id="namedview39"
     pagecolor="#ffffff"
     bordercolor="#000000"
     borderopacity="0.25"
     inkscape:showpageshadow="2"
     inkscape:pageopacity="0.0"
     inkscape:pagecheckerboard="0"
     inkscape:deskcolor="#d1d1d1"
     showgrid="false"
     inkscape:zoom="0.83057643"
     inkscape:cx="143.87598"
     inkscape:cy="142.07001"
     inkscape:window-width="722"
     inkscape:window-height="456"
     inkscape:window-x="720"
     inkscape:window-y="338"
     inkscape:window-maximized="0"
     inkscape:current-layer="Layer_1" />
  <defs
     id="defs4">
    <style
       id="style2">.cls-1{fill:#64c0e4;}.cls-2{opacity:.95;}</style>
  </defs>
  <g
     class="cls-2"
     id="g36"
     transform="matrix(1.4056583,0,0,1.4056583,-73.71272,-65.138206)">
    <path
       class="cls-1"
       d="m 188.14,248.48 c 1.13,-0.02 2.12,-0.41 3.18,-0.67 h -6.55 c 1.11,0.27 2.18,0.68 3.37,0.67 z"
       id="path6" />
    <path
       class="cls-1"
       d="m 69.6,60.7 c 1.02,-5.89 -2.12,-11.46 -7.61,-13.38 -1.04,-0.37 -2.1,-0.66 -3.15,-0.98 h -2.07 c -0.71,0.23 -1.42,0.49 -2.13,0.69 -0.8,0.22 -1.48,0.69 -2.2,1.08 v 20.66 c 1.54,0.79 3.19,1.36 5.06,1.42 5.98,0.17 11.12,-3.86 12.09,-9.48 z"
       id="path8" />
    <path
       class="cls-1"
       d="m 143.54,217.23 c 0.02,-0.17 0,-0.36 0.06,-0.51 3.96,-11.11 0.81,-19.02 -9.76,-24.69 -0.59,-0.32 -1.09,-1.43 -1.09,-2.17 0.16,-10.11 -6.34,-17.81 -16.32,-19 -1.66,-0.2 -2.34,-0.74 -2.73,-2.29 -1.15,-4.47 -3.86,-7.83 -7.77,-10.23 -4.84,-2.97 -10,-3.44 -15.31,-1.81 -5.33,-8.18 -12.53,-11.15 -21.91,-8.75 -0.76,0.19 -1.81,-0.27 -2.61,-0.65 -4.49,-2.18 -9.1,-2.39 -13.66,-0.84 v 32.87 c 3.45,1.08 6.95,1.39 10.6,0.46 0.81,-0.21 1.89,-0.14 2.63,0.24 4.32,2.21 8.79,2.79 13.54,1.81 0.73,-0.15 1.97,0.38 2.4,0.99 3.32,4.72 7.71,7.58 13.47,8.14 1.65,0.17 2.46,0.72 2.96,2.46 1.54,5.44 5.08,9.26 10.24,11.62 0.75,0.35 1.77,1.35 1.75,2 -0.33,6.81 2.21,12.25 7.59,16.55 -2.92,6.64 -2.66,13.08 1.41,19.31 -1.49,1.6 -2.58,3.3 -3.49,5.06 h 30.95 c -0.4,-0.84 -0.52,-1.75 -1.05,-2.57 7.85,-10.27 7.28,-18.04 -1.92,-28.01 z"
       id="path10" />
    <path
       class="cls-1"
       d="m 128.67,116.29 c -7.95,-0.09 -14.7,6.47 -14.87,14.48 -0.17,8.15 6.84,15.23 15.06,15.22 7.97,0 14.66,-6.62 14.76,-14.62 0.1,-7.98 -6.83,-14.98 -14.95,-15.08 z"
       id="path12" />
    <path
       class="cls-1"
       d="m 174.05,158.41 c 0.07,-8.08 -6.8,-15.04 -14.91,-15.09 -8.12,-0.06 -14.83,6.64 -14.81,14.77 0.03,8.12 6.91,14.95 15.04,14.95 8.02,0 14.6,-6.58 14.68,-14.63 z"
       id="path14" />
    <path
       class="cls-1"
       d="m 91.03,100.18 c -8.17,0.02 -14.55,6.45 -14.55,14.61 0,8.25 6.67,14.77 15.07,14.77 8.18,0 14.78,-6.67 14.7,-14.83 -0.07,-8.24 -6.69,-14.58 -15.23,-14.55 z"
       id="path16" />
    <path
       class="cls-1"
       d="m 202.69,233.78 c 0.04,-8.61 -6.22,-15.06 -14.6,-15.08 -8.26,0 -14.76,6.46 -14.77,14.72 0,7.12 4.98,12.85 11.46,14.38 h 6.55 c 6.49,-1.53 11.34,-7.02 11.37,-14.02 z"
       id="path18" />
    <path
       class="cls-1"
       d="m 179.75,178.54 c -7.96,-0.07 -14.67,6.55 -14.72,14.57 -0.06,8.44 6.37,15.13 14.61,15.18 8.35,0.06 14.81,-6.28 14.84,-14.57 0.04,-8.35 -6.51,-15.1 -14.73,-15.18 z"
       id="path20" />
    <path
       class="cls-1"
       d="m 72.73,110.62 c 0.05,-8.11 -6.58,-14.69 -14.83,-14.69 -1.95,0 -3.76,0.41 -5.44,1.05 v 27.21 c 1.66,0.65 3.43,1.09 5.34,1.1 8.07,0.1 14.88,-6.59 14.93,-14.68 z"
       id="path22" />
    <path
       class="cls-1"
       d="m 203.36,115.71 c -6.97,-0.08 -12.05,4.78 -12.1,11.59 -0.05,6.77 5.09,12.1 11.69,12.16 6.8,0.06 12.12,-5.09 12.1,-11.73 0,-6.46 -5.34,-11.94 -11.69,-12.02 z"
       id="path24" />
    <path
       class="cls-1"
       d="m 119.7,65.12 c 0,-6.62 -5.59,-12.04 -12.34,-11.97 -6.51,0.07 -11.72,5.41 -11.68,11.96 0.05,6.65 5.31,11.73 12.15,11.73 6.64,0 11.89,-5.18 11.87,-11.72 z"
       id="path26" />
    <path
       class="cls-1"
       d="m 242.96,222.73 c -6.71,-0.05 -11.87,4.9 -12.03,11.51 -0.17,6.85 5.08,12.32 11.81,12.33 6.67,0 11.72,-4.99 11.81,-11.71 0.1,-6.92 -4.85,-12.1 -11.59,-12.14 z"
       id="path28" />
    <path
       class="cls-1"
       d="m 243.52,177.99 c 0,-6.83 -5.29,-12.12 -12.07,-12.08 -6.6,0.04 -11.66,5.23 -11.61,11.9 0.05,6.77 5.23,11.97 11.92,11.95 6.66,-0.02 11.76,-5.13 11.76,-11.76 z"
       id="path30" />
    <path
       class="cls-1"
       d="m 160.44,100.64 c 6.69,0 11.72,-5.04 11.72,-11.73 0,-6.69 -5.35,-12.05 -12.14,-12 -6.51,0.04 -11.57,5.12 -11.61,11.63 -0.03,6.85 5.2,12.1 12.03,12.1 z"
       id="path32" />
    <path
       class="cls-1"
       d="m 59.1,194.43 c -2.28,-0.03 -4.47,0.26 -6.65,0.57 v 52.81 h 44.92 c 0.98,-3.31 1.7,-6.73 1.76,-10.32 C 99.5,213.98 81.57,194.7 59.1,194.43 Z"
       id="path34" />
  </g>
</svg>
