<?xml version="1.0" encoding="UTF-8"?><svg id="Layer_1" xmlns="http://www.w3.org/2000/svg" viewBox="0 0 286.77 284.14"><defs><style>.cls-1{fill:#64c0e4;}.cls-2{opacity:.95;}</style></defs><g class="cls-2"><path class="cls-1" d="M188.14,248.48c1.13-.02,2.12-.41,3.18-.67h-6.55c1.11,.27,2.18,.68,3.37,.67Z"/><path class="cls-1" d="M69.6,60.7c1.02-5.89-2.12-11.46-7.61-13.38-1.04-.37-2.1-.66-3.15-.98h-2.07c-.71,.23-1.42,.49-2.13,.69-.8,.22-1.48,.69-2.2,1.08v20.66c1.54,.79,3.19,1.36,5.06,1.42,5.98,.17,11.12-3.86,12.09-9.48Z"/><path class="cls-1" d="M143.54,217.23c.02-.17,0-.36,.06-.51,3.96-11.11,.81-19.02-9.76-24.69-.59-.32-1.09-1.43-1.09-2.17,.16-10.11-6.34-17.81-16.32-19-1.66-.2-2.34-.74-2.73-2.29-1.15-4.47-3.86-7.83-7.77-10.23-4.84-2.97-10-3.44-15.31-1.81-5.33-8.18-12.53-11.15-21.91-8.75-.76,.19-1.81-.27-2.61-.65-4.49-2.18-9.1-2.39-13.66-.84v32.87c3.45,1.08,6.95,1.39,10.6,.46,.81-.21,1.89-.14,2.63,.24,4.32,2.21,8.79,2.79,13.54,1.81,.73-.15,1.97,.38,2.4,.99,3.32,4.72,7.71,7.58,13.47,8.14,1.65,.17,2.46,.72,2.96,2.46,1.54,5.44,5.08,9.26,10.24,11.62,.75,.35,1.77,1.35,1.75,2-.33,6.81,2.21,12.25,7.59,16.55-2.92,6.64-2.66,13.08,1.41,19.31-1.49,1.6-2.58,3.3-3.49,5.06h30.95c-.4-.84-.52-1.75-1.05-2.57,7.85-10.27,7.28-18.04-1.92-28.01Z"/><path class="cls-1" d="M128.67,116.29c-7.95-.09-14.7,6.47-14.87,14.48-.17,8.15,6.84,15.23,15.06,15.22,7.97,0,14.66-6.62,14.76-14.62,.1-7.98-6.83-14.98-14.95-15.08Z"/><path class="cls-1" d="M174.05,158.41c.07-8.08-6.8-15.04-14.91-15.09-8.12-.06-14.83,6.64-14.81,14.77,.03,8.12,6.91,14.95,15.04,14.95,8.02,0,14.6-6.58,14.68-14.63Z"/><path class="cls-1" d="M91.03,100.18c-8.17,.02-14.55,6.45-14.55,14.61,0,8.25,6.67,14.77,15.07,14.77,8.18,0,14.78-6.67,14.7-14.83-.07-8.24-6.69-14.58-15.23-14.55Z"/><path class="cls-1" d="M202.69,233.78c.04-8.61-6.22-15.06-14.6-15.08-8.26,0-14.76,6.46-14.77,14.72,0,7.12,4.98,12.85,11.46,14.38h6.55c6.49-1.53,11.34-7.02,11.37-14.02Z"/><path class="cls-1" d="M179.75,178.54c-7.96-.07-14.67,6.55-14.72,14.57-.06,8.44,6.37,15.13,14.61,15.18,8.35,.06,14.81-6.28,14.84-14.57,.04-8.35-6.51-15.1-14.73-15.18Z"/><path class="cls-1" d="M72.73,110.62c.05-8.11-6.58-14.69-14.83-14.69-1.95,0-3.76,.41-5.44,1.05v27.21c1.66,.65,3.43,1.09,5.34,1.1,8.07,.1,14.88-6.59,14.93-14.68Z"/><path class="cls-1" d="M203.36,115.71c-6.97-.08-12.05,4.78-12.1,11.59-.05,6.77,5.09,12.1,11.69,12.16,6.8,.06,12.12-5.09,12.1-11.73,0-6.46-5.34-11.94-11.69-12.02Z"/><path class="cls-1" d="M119.7,65.12c0-6.62-5.59-12.04-12.34-11.97-6.51,.07-11.72,5.41-11.68,11.96,.05,6.65,5.31,11.73,12.15,11.73,6.64,0,11.89-5.18,11.87-11.72Z"/><path class="cls-1" d="M242.96,222.73c-6.71-.05-11.87,4.9-12.03,11.51-.17,6.85,5.08,12.32,11.81,12.33,6.67,0,11.72-4.99,11.81-11.71,.1-6.92-4.85-12.1-11.59-12.14Z"/><path class="cls-1" d="M243.52,177.99c0-6.83-5.29-12.12-12.07-12.08-6.6,.04-11.66,5.23-11.61,11.9,.05,6.77,5.23,11.97,11.92,11.95,6.66-.02,11.76-5.13,11.76-11.76Z"/><path class="cls-1" d="M160.44,100.64c6.69,0,11.72-5.04,11.72-11.73s-5.35-12.05-12.14-12c-6.51,.04-11.57,5.12-11.61,11.63-.03,6.85,5.2,12.1,12.03,12.1Z"/><path class="cls-1" d="M59.1,194.43c-2.28-.03-4.47,.26-6.65,.57v52.81h44.92c.98-3.31,1.7-6.73,1.76-10.32,.37-23.51-17.56-42.79-40.03-43.06Z"/></g></svg>