<?xml version="1.0" encoding="UTF-8" standalone="no"?>
<svg
   id="Layer_1"
   viewBox="0 0 286.77 284.14"
   version="1.1"
   sodipodi:docname="molecular.svg"
   inkscape:version="1.2.2 (b0a84865, 2022-12-01)"
   xmlns:inkscape="http://www.inkscape.org/namespaces/inkscape"
   xmlns:sodipodi="http://sodipodi.sourceforge.net/DTD/sodipodi-0.dtd"
   xmlns="http://www.w3.org/2000/svg"
   xmlns:svg="http://www.w3.org/2000/svg">
  <sodipodi:namedview
     id="namedview21"
     pagecolor="#ffffff"
     bordercolor="#000000"
     borderopacity="0.25"
     inkscape:showpageshadow="2"
     inkscape:pageopacity="0.0"
     inkscape:pagecheckerboard="0"
     inkscape:deskcolor="#d1d1d1"
     showgrid="false"
     inkscape:zoom="0.83057643"
     inkscape:cx="143.87598"
     inkscape:cy="142.07001"
     inkscape:window-width="722"
     inkscape:window-height="456"
     inkscape:window-x="720"
     inkscape:window-y="338"
     inkscape:window-maximized="0"
     inkscape:current-layer="Layer_1" />
  <defs
     id="defs4">
    <style
       id="style2">.cls-1{fill:#3fdaac;}.cls-2{opacity:.95;}</style>
  </defs>
  <g
     class="cls-2"
     id="g18"
     transform="matrix(1.3818023,0,0,1.3818023,-48.322899,-61.614566)">
    <g
       id="g10">
      <path
         class="cls-1"
         d="m 152.48,218.15 c -28.67,1.32 -64.3,-3.46 -103.14,-33.41 l 19.22,-24.93 c 36.21,27.92 67.96,28.79 94.27,25.96 l 3.37,31.3 c -4.37,0.47 -8.96,0.86 -13.73,1.08 z"
         id="path6" />
      <polygon
         class="cls-1"
         points="231.8,181.96 138.01,156.01 162.44,250.22 "
         id="polygon8" />
    </g>
    <g
       id="g16">
      <path
         class="cls-1"
         d="m 211.22,124.6 c -38.95,-23.95 -70.63,-21.48 -96.49,-15.89 l -6.65,-30.77 c 30.09,-6.51 70.9,-10.13 119.62,19.84 l -16.49,26.82 z"
         id="path12" />
      <polygon
         class="cls-1"
         points="46.55,119.77 142.56,135.7 108.34,44.59 "
         id="polygon14" />
    </g>
  </g>
</svg>
