<?xml version="1.0" encoding="UTF-8" standalone="no"?>
<svg
   id="Layer_1"
   viewBox="0 0 286.77 284.14"
   version="1.1"
   sodipodi:docname="multicellular.svg"
   inkscape:version="1.2.2 (b0a84865, 2022-12-01)"
   xmlns:inkscape="http://www.inkscape.org/namespaces/inkscape"
   xmlns:sodipodi="http://sodipodi.sourceforge.net/DTD/sodipodi-0.dtd"
   xmlns="http://www.w3.org/2000/svg"
   xmlns:svg="http://www.w3.org/2000/svg">
  <sodipodi:namedview
     id="namedview13"
     pagecolor="#ffffff"
     bordercolor="#000000"
     borderopacity="0.25"
     inkscape:showpageshadow="2"
     inkscape:pageopacity="0.0"
     inkscape:pagecheckerboard="0"
     inkscape:deskcolor="#d1d1d1"
     showgrid="false"
     inkscape:zoom="0.83057643"
     inkscape:cx="143.87598"
     inkscape:cy="142.07001"
     inkscape:window-width="722"
     inkscape:window-height="456"
     inkscape:window-x="720"
     inkscape:window-y="338"
     inkscape:window-maximized="0"
     inkscape:current-layer="Layer_1" />
  <defs
     id="defs4">
    <style
       id="style2">.cls-1{fill:#37da87;}</style>
  </defs>
  <path
     class="cls-1"
     d="M 227.94525,48.751129 C 206.41288,24.592296 180.98131,15.914554 172.02588,13.25338 147.55465,5.9756471 99.5031,0.10949371 84.600525,22.567489 72.474828,40.848599 94.180752,59.951201 81.499679,86.910052 69.940927,111.46228 41.420083,117.98794 43.780428,124.62931 c 2.290924,6.45624 27.132406,-5.53062 53.697866,5.32234 26.785296,10.94553 30.545656,34.97709 44.383756,33.28782 17.03152,-2.09423 12.99347,-38.72587 38.1705,-53.2582 28.24315,-16.30258 63.08139,12.64637 73.66824,-0.43967 9.42981,-11.662883 -10.71412,-43.932512 -25.74397,-60.802042 z m -100.73123,33.38038 c -16.55713,0 -29.978703,-13.398434 -29.978703,-29.920854 0,-16.52242 13.421573,-29.920853 29.978703,-29.920853 16.55714,0 29.97871,13.398433 29.97871,29.920853 0,16.52242 -13.42157,29.920854 -29.97871,29.920854 z"
     id="path6"
     style="stroke-width:1.15703" />
  <path
     class="cls-1"
     d="m 257.24131,132.6244 c -16.67284,-15.43481 -45.89947,-17.55218 -62.13263,-6.21326 -8.15708,5.69259 -7.87939,11.17693 -26.18364,40.38042 -10.49429,16.73069 -12.31083,17.69102 -17.74888,26.62331 -11.09594,18.22326 -35.2432,66.3558 -19.5307,83.87327 12.03313,13.42157 42.79862,3.7025 55.91937,-0.43967 9.60336,-3.03143 56.84499,-17.95714 74.99882,-64.79381 3.18184,-8.20336 21.25469,-54.83176 -5.32234,-79.44183 z m -64.7591,124.36939 c -15.55051,0 -28.15059,-12.57694 -28.15059,-28.09274 0,-15.5158 12.60008,-28.09274 28.15059,-28.09274 15.55052,0 28.1506,12.57694 28.1506,28.09274 0,15.5158 -12.60008,28.09274 -28.1506,28.09274 z"
     id="path8"
     style="stroke-width:1.15703" />
  <path
     class="cls-1"
     d="m 124.10161,170.34365 c -16.39515,-27.94233 -57.168967,-43.08788 -83.873271,-28.40514 -17.471186,9.60337 -22.874527,28.65969 -23.522465,31.06631 -12.9009094,48.1904 46.30443,113.58586 78.99059,105.62548 20.294346,-4.94053 29.122506,-37.84653 31.957236,-48.37552 3.15869,-11.77859 9.92733,-36.95561 -3.55209,-59.91113 z m -48.456514,78.56249 c -14.590176,0 -26.415046,-11.80173 -26.415046,-26.36877 0,-14.56703 11.82487,-26.36876 26.415046,-26.36876 14.590176,0 26.415044,11.80173 26.415044,26.36876 0,14.56704 -11.824868,26.36877 -26.415044,26.36877 z"
     id="path10"
     style="stroke-width:1.15703" />
</svg>
