<?xml version="1.0" encoding="UTF-8"?><svg id="Layer_1" xmlns="http://www.w3.org/2000/svg" viewBox="0 0 286.77 284.14"><defs><style>.cls-1{fill:#37da87;}</style></defs><path class="cls-1" d="M215.11,62.02c-18.61-20.88-40.59-28.38-48.33-30.68-21.15-6.29-62.68-11.36-75.56,8.05-10.48,15.8,8.28,32.31-2.68,55.61-9.99,21.22-34.64,26.86-32.6,32.6,1.98,5.58,23.45-4.78,46.41,4.6,23.15,9.46,26.4,30.23,38.36,28.77,14.72-1.81,11.23-33.47,32.99-46.03,24.41-14.09,54.52,10.93,63.67-.38,8.15-10.08-9.26-37.97-22.25-52.55Zm-87.06,28.85c-14.31,0-25.91-11.58-25.91-25.86s11.6-25.86,25.91-25.86,25.91,11.58,25.91,25.86-11.6,25.86-25.91,25.86Z"/><path class="cls-1" d="M240.43,134.51c-14.41-13.34-39.67-15.17-53.7-5.37-7.05,4.92-6.81,9.66-22.63,34.9-9.07,14.46-10.64,15.29-15.34,23.01-9.59,15.75-30.46,57.35-16.88,72.49,10.4,11.6,36.99,3.2,48.33-.38,8.3-2.62,49.13-15.52,64.82-56,2.75-7.09,18.37-47.39-4.6-68.66Zm-55.97,107.49c-13.44,0-24.33-10.87-24.33-24.28s10.89-24.28,24.33-24.28,24.33,10.87,24.33,24.28-10.89,24.28-24.33,24.28Z"/><path class="cls-1" d="M125.36,167.11c-14.17-24.15-49.41-37.24-72.49-24.55-15.1,8.3-19.77,24.77-20.33,26.85-11.15,41.65,40.02,98.17,68.27,91.29,17.54-4.27,25.17-32.71,27.62-41.81,2.73-10.18,8.58-31.94-3.07-51.78Zm-41.88,67.9c-12.61,0-22.83-10.2-22.83-22.79s10.22-22.79,22.83-22.79,22.83,10.2,22.83,22.79-10.22,22.79-22.83,22.79Z"/></svg>